<svg width="267" height="84" viewBox="0 0 267 84" fill="none" xmlns="http://www.w3.org/2000/svg">
<path d="M105.075 39.3107V9.12896H113.604L125.196 28.7533L126.273 28.3393L125.072 21.5908V9.12896H132.442V39.3107H123.913L112.403 19.8934L111.327 20.266L112.527 26.7661V39.3107H105.075Z" fill="#080B18"/>
<path d="M136.689 39.3107V9.12896H158.715V15.5048H144.141V20.68H156.562V26.6418H144.141V32.9349H158.715V39.3107H136.689Z" fill="#080B18"/>
<path d="M162.315 27.6769V9.12896H169.726V27.2215C169.726 31.3202 171.837 33.1005 175.563 33.1005C179.621 33.1005 181.401 30.989 181.401 27.2215V9.12896H188.812V27.6769C188.812 35.2534 183.513 39.7248 175.522 39.7248C166.455 39.7248 162.315 34.8394 162.315 27.6769Z" fill="#080B18"/>
<path d="M192.843 39.3107V9.12896H207.954C214.496 9.12896 218.015 12.7723 218.015 18.3201C218.015 23.1227 215.572 26.0622 211.267 26.9731V28.0495C214.165 28.6291 214.993 30.1196 215.945 32.3967L218.719 39.3107H210.563L207.54 31.4858C206.712 29.333 205.843 28.8361 203.318 28.8361H200.295V39.3107H192.843ZM200.295 23.4953H206.671C209.031 23.4953 210.107 22.1705 210.107 20.5558V18.6099C210.107 16.7055 208.741 15.7532 206.671 15.7532H200.295V23.4953Z" fill="#080B18"/>
<path d="M220.214 24.3234C220.214 14.3456 225.886 8.75635 234.58 8.75635C243.771 8.75635 248.947 14.8424 248.947 24.3234C248.947 34.1769 243.316 39.7248 234.58 39.7248C225.389 39.7248 220.214 33.6387 220.214 24.3234ZM228.08 26.3934C228.08 30.7406 230.688 33.2247 234.58 33.2247C238.762 33.2247 241.08 30.4922 241.08 26.3934V22.0877C241.08 17.7405 238.472 15.2564 234.58 15.2564C230.44 15.2564 228.08 17.9475 228.08 22.0877V26.3934Z" fill="#080B18"/>
<path d="M102.314 59.7501C102.314 50.1863 107.82 44.1831 117.053 44.1831C124.836 44.1831 130.425 48.5717 130.674 55.4443H122.932C122.601 52.5048 120.241 50.6832 116.763 50.6832C112.747 50.6832 110.18 53.1259 110.18 57.266V62.1928C110.18 66.0846 112.581 68.6515 116.763 68.6515C119.992 68.6515 122.476 66.8712 122.932 63.8075H130.674C130.177 70.8043 124.505 75.1515 116.722 75.1515C107.489 75.1515 102.314 69.0241 102.314 59.7501Z" fill="#080B18"/>
<path d="M133.54 74.7375V44.5557H140.992V56.4794H153.661V44.5557H161.113V74.7375H153.661V62.6482H140.992V74.7375H133.54Z" fill="#080B18"/>
<path d="M185.623 74.7375L184.133 69.9763H172.996L171.422 74.7375H163.722L173.782 44.5557H183.263L193.821 74.7375H185.623ZM174.859 64.2629H182.352L180.738 59.1291L179.165 52.4634H178.047L176.515 59.1291L174.859 64.2629Z" fill="#080B18"/>
<path d="M196.202 74.7375V68.3202H203.488V50.973H196.202V44.5557H218.186V50.973H210.941V68.3202H218.186V74.7375H196.202Z" fill="#080B18"/>
<path d="M221.668 74.7375V44.5557H230.197L241.79 64.1801L242.866 63.7661L241.665 57.0176V44.5557H249.035V74.7375H240.506L228.996 55.3201L227.92 55.6928L229.121 62.1928V74.7375H221.668Z" fill="#080B18"/>
<path d="M54.9915 0H25.9555C24.488 0 23.0834 0.600832 22.0635 1.66487L2.02865 22.5652C0.727393 23.9227 0 25.737 0 27.6251V57.3788C0 58.7949 0.545545 60.1556 1.52149 61.1737L22.1085 82.6501C22.6723 83.2383 23.6594 82.8357 23.6594 82.0176V37.1127C23.6594 35.6966 24.2049 34.3358 25.1809 33.3177L55.6402 1.54245C56.1938 0.964919 55.788 0 54.9915 0Z" fill="#37DEC7"/>
<path d="M28.92 83.9095H57.956C59.4235 83.9095 60.8281 83.3087 61.848 82.2446L81.8829 61.3443C83.1841 59.9868 83.9115 58.1725 83.9115 56.2844V26.5307C83.9115 25.1146 83.366 23.7539 82.39 22.7358L61.803 1.25941C61.2392 0.671224 60.2521 1.07378 60.2521 1.8919V46.7968C60.2521 48.213 59.7066 49.5737 58.7306 50.5918L28.2713 82.367C27.7177 82.9446 28.1235 83.9095 28.92 83.9095Z" fill="#37DEC7"/>
<path d="M259.164 51.6898L258.812 50.5651H256.181L255.809 51.6898H253.99L256.367 44.5602H258.607L261.1 51.6898H259.164ZM256.621 49.2154H258.391L258.01 48.0027L257.638 46.4282H257.374L257.012 48.0027L256.621 49.2154Z" fill="#080B18"/>
<path d="M261.808 51.6898V50.1739H263.529V46.0761H261.808V44.5602H267.001V46.0761H265.289V50.1739H267.001V51.6898H261.808Z" fill="#080B18"/>
</svg>
